<svg width="24" height="24" viewBox="0 0 24 24" fill="none" xmlns="http://www.w3.org/2000/svg">
<path fill-rule="evenodd" clip-rule="evenodd" d="M7.00185 4.80001C5.23453 4.80001 3.80185 6.2327 3.80185 8.00001L3.80185 14.3566L7.02586 11.3341C8.55208 9.90327 10.9478 9.97518 12.3854 11.495L14.9074 14.161L16.6845 12.6799C17.7086 11.8263 19.1762 11.8214 20.2018 12.6247V8.00001C20.2018 6.2327 18.7692 4.80001 17.0018 4.80001L7.00185 4.80001ZM20.2018 14.8585L19.3257 13.9823C18.8869 13.5434 18.1857 13.5116 17.7089 13.909L16.009 15.3257L19.0065 18.4944C19.7354 17.9079 20.2018 17.0084 20.2018 16V14.8585ZM17.443 19.1699L11.2231 12.5945C10.3907 11.7146 9.00376 11.673 8.12016 12.5014L3.84253 16.5116C4.08744 18.0358 5.40868 19.2 7.00185 19.2H17.0018C17.1515 19.2 17.2988 19.1897 17.443 19.1699ZM2.21381 16.3416C2.38898 18.8331 4.46572 20.8 7.00185 20.8H17.0018C19.6528 20.8 21.8018 18.651 21.8018 16V8.00001C21.8018 5.34905 19.6528 3.20001 17.0018 3.20001L7.00185 3.20001C4.35088 3.20001 2.20185 5.34905 2.20185 8.00001L2.20185 16C2.20185 16.0484 2.20256 16.0966 2.20398 16.1447C2.19919 16.2103 2.20245 16.2765 2.21381 16.3416ZM15.3143 7.92551C14.6516 7.92551 14.1143 8.46277 14.1143 9.12551C14.1143 9.78825 14.6516 10.3255 15.3143 10.3255C15.9771 10.3255 16.5143 9.78825 16.5143 9.12551C16.5143 8.46277 15.9771 7.92551 15.3143 7.92551ZM12.5143 9.12551C12.5143 7.57911 13.7679 6.32551 15.3143 6.32551C16.8607 6.32551 18.1143 7.57911 18.1143 9.12551C18.1143 10.6719 16.8607 11.9255 15.3143 11.9255C13.7679 11.9255 12.5143 10.6719 12.5143 9.12551Z" fill="#404040"/>
</svg>
