<svg width="24" height="24" viewBox="0 0 24 24" fill="none" xmlns="http://www.w3.org/2000/svg">
<path fill-rule="evenodd" clip-rule="evenodd" d="M14.1183 4.44572C13.0305 3.58477 11.4608 3.58478 10.373 4.44573L5.69118 8.15118C5.00757 8.69223 4.61837 9.49537 4.61837 10.3353V17.3702C4.61837 18.9096 5.91327 20.2 7.56383 20.2H16.9275C18.578 20.2 19.8729 18.9096 19.8729 17.3702V10.3353C19.8729 9.49537 19.4837 8.69223 18.8001 8.15118L14.1183 4.44572ZM9.38003 3.19112C11.0497 1.86964 13.4416 1.86964 15.1113 3.19112L19.7931 6.89658C20.8515 7.73429 21.4729 8.99552 21.4729 10.3353V17.3702C21.4729 19.8402 19.414 21.8 16.9275 21.8H7.56383C5.07727 21.8 3.01837 19.8402 3.01837 17.3702V10.3353C3.01837 8.99552 3.63978 7.73429 4.69822 6.89658L9.38003 3.19112ZM8.70006 17C8.70006 16.5582 9.05823 16.2 9.50006 16.2H14.9455C15.3873 16.2 15.7455 16.5582 15.7455 17C15.7455 17.4418 15.3873 17.8 14.9455 17.8H9.50006C9.05823 17.8 8.70006 17.4418 8.70006 17Z" fill="#404040"/>
</svg>
