<svg width="12" height="12" viewBox="0 0 12 12" fill="none" xmlns="http://www.w3.org/2000/svg">
<g clip-path="url(#clip0_2091_203)">
<path d="M6.00273 2.85635C4.29916 2.85635 2.92506 4.25908 2.92506 5.99814C2.92506 7.73721 4.29916 9.13994 6.00273 9.13994C7.70631 9.13994 9.08041 7.73721 9.08041 5.99814C9.08041 4.25908 7.70631 2.85635 6.00273 2.85635ZM6.00273 8.04072C4.90184 8.04072 4.00184 7.12471 4.00184 5.99814C4.00184 4.87158 4.89916 3.95557 6.00273 3.95557C7.10631 3.95557 8.00363 4.87158 8.00363 5.99814C8.00363 7.12471 7.10363 8.04072 6.00273 8.04072ZM9.92416 2.72783C9.92416 3.13525 9.60274 3.46064 9.20631 3.46064C8.8072 3.46064 8.48845 3.13252 8.48845 2.72783C8.48845 2.32314 8.80988 1.99502 9.20631 1.99502C9.60274 1.99502 9.92416 2.32314 9.92416 2.72783ZM11.9626 3.47158C11.917 2.48994 11.6974 1.62041 10.9929 0.904004C10.2911 0.187598 9.43934 -0.0366211 8.47773 -0.0858398C7.48666 -0.143262 4.51613 -0.143262 3.52506 -0.0858398C2.56613 -0.0393555 1.71434 0.184863 1.00988 0.90127C0.305413 1.61768 0.0884487 2.48721 0.0402344 3.46885C-0.0160156 4.48057 -0.0160156 7.51299 0.0402344 8.52471C0.0857701 9.50635 0.305413 10.3759 1.00988 11.0923C1.71434 11.8087 2.56345 12.0329 3.52506 12.0821C4.51613 12.1396 7.48666 12.1396 8.47773 12.0821C9.43934 12.0356 10.2911 11.8114 10.9929 11.0923C11.6947 10.3759 11.9143 9.50635 11.9626 8.52471C12.0188 7.51299 12.0188 4.4833 11.9626 3.47158ZM10.6822 9.61025C10.4733 10.1462 10.0688 10.5591 9.54113 10.7751C8.75095 11.095 6.87595 11.0212 6.00273 11.0212C5.12952 11.0212 3.25184 11.0923 2.46434 10.7751C1.93934 10.5618 1.53488 10.1489 1.32327 9.61025C1.00988 8.80361 1.0822 6.88955 1.0822 5.99814C1.0822 5.10674 1.01256 3.18994 1.32327 2.38604C1.5322 1.8501 1.93666 1.43721 2.46434 1.22119C3.25452 0.901269 5.12952 0.975098 6.00273 0.975098C6.87595 0.975098 8.75363 0.904004 9.54113 1.22119C10.0661 1.43447 10.4706 1.84736 10.6822 2.38604C10.9956 3.19268 10.9233 5.10674 10.9233 5.99814C10.9233 6.88955 10.9956 8.80635 10.6822 9.61025Z" fill="url(#paint0_linear_2091_203)"/>
</g>
<defs>
<linearGradient id="paint0_linear_2091_203" x1="6.0014" y1="-0.128906" x2="6.0014" y2="12.1252" gradientUnits="userSpaceOnUse">
<stop stop-color="#8B26DA"/>
<stop offset="0.555009" stop-color="#DF1E71"/>
<stop offset="1" stop-color="#FF9E23"/>
</linearGradient>
<clipPath id="clip0_2091_203">
<rect width="12" height="12" fill="white"/>
</clipPath>
</defs>
</svg>
