<svg width="93" height="26" viewBox="0 0 93 26" fill="none" xmlns="http://www.w3.org/2000/svg">
<g clip-path="url(#clip0_2043_34)">
<path d="M53.9826 13.0583C53.9535 10.8722 53.2269 9.06502 51.7736 7.63677C50.3203 6.23767 48.4892 5.53812 46.2512 5.53812C44.0132 5.53812 42.153 6.23767 40.6997 7.63677C39.2174 9.06502 38.4908 10.843 38.4908 13.0291C38.4908 15.2152 39.2174 16.9933 40.6997 18.3924C42.153 19.7915 44.0132 20.491 46.2512 20.491C48.0242 20.491 49.6228 19.9955 51.0179 18.9753C52.413 17.9552 53.3141 16.6726 53.721 15.0987H49.9134C49.3612 16.4103 47.937 17.4013 46.2803 17.4013C44.3038 17.4013 42.7343 16.0897 42.2693 14.1951H53.8663C53.9535 13.8744 53.9826 13.4955 53.9826 13.0583ZM46.2803 8.6278C48.1114 8.6278 49.71 9.70628 50.2913 11.3094H42.4146C43.025 9.67713 44.5073 8.6278 46.2803 8.6278Z" fill="black"/>
<path d="M70.4532 13.0583C70.4242 10.8722 69.6975 9.06502 68.2443 7.63677C66.791 6.23767 64.9599 5.53812 62.7219 5.53812C60.4839 5.53812 58.6237 6.23767 57.1704 7.63677C55.6881 9.06502 54.9615 10.843 54.9615 13.0291C54.9615 15.2152 55.6881 16.9933 57.1704 18.3924C58.6237 19.7915 60.4839 20.491 62.7219 20.491C64.4949 20.491 66.0934 19.9955 67.4886 18.9753C68.8837 17.9552 69.7847 16.6726 70.1916 15.0987H66.3841C65.8319 16.4103 64.4077 17.4013 62.7509 17.4013C60.7745 17.4013 59.205 16.0897 58.7399 14.1951H70.337C70.4242 13.8744 70.4532 13.4955 70.4532 13.0583ZM62.7509 8.6278C64.5821 8.6278 66.1806 9.70628 66.7619 11.3094H58.8853C59.4956 9.67713 60.978 8.6278 62.7509 8.6278Z" fill="black"/>
<path d="M72.2169 20.2287H75.9954V0H72.2169V20.2287Z" fill="black"/>
<path d="M85.1232 14.8946L81.1122 5.8296H77.0722L83.3502 18.6839L79.659 26H83.6118L92.9999 5.8296H89.047L85.1232 14.8946Z" fill="black"/>
<path d="M33.9967 5.8291H38.3152L28.419 20.2287H24.1004L33.9967 5.8291Z" fill="black"/>
<path d="M24.491 5.8291H35.0907V9.07606H24.491V5.8291Z" fill="black"/>
<path d="M27.41 16.9805H37.602V20.2274H27.41V16.9805Z" fill="black"/>
<path fill-rule="evenodd" clip-rule="evenodd" d="M0.719867 16.6377L0.71956 16.6369H18.2001L18.1997 16.6377H0.719867ZM18.6603 15.217C18.6029 15.4576 18.5363 15.6946 18.461 15.9277H0.458581C0.383269 15.6946 0.316711 15.4576 0.259295 15.217H18.6603ZM4.48414 21.0705C4.48506 21.0711 4.48598 21.0717 4.48691 21.0723H14.4327C14.4336 21.0717 14.4346 21.0711 14.4355 21.0705H4.48414ZM3.49143 20.3613C3.21934 20.1392 2.9598 19.9022 2.71405 19.6516H16.2056C15.9598 19.9022 15.7003 20.1392 15.4282 20.3613H3.49143ZM1.04868 17.3469C1.20654 17.6535 1.38058 17.9503 1.56967 18.2363H17.3499C17.539 17.9503 17.7131 17.6535 17.8709 17.3469H1.04868ZM9.45981 22.4871C8.19023 22.4871 6.97907 22.2363 5.8729 21.7815H13.0467C11.9405 22.2363 10.7294 22.4871 9.45981 22.4871ZM0.0334425 13.8066C0.0136415 13.5705 0.00246964 13.3318 0.000244141 13.091H18.9194C18.9171 13.3318 18.906 13.5705 18.8862 13.8066H0.0334425ZM0.0917301 11.6738C0.133752 11.3729 0.189853 11.0765 0.259342 10.7854H18.6603C18.7298 11.0765 18.7859 11.3729 18.8279 11.6738H0.0917301ZM18.4614 10.0762H0.458165L0.45872 10.0744H18.4609L18.4614 10.0762ZM18.1999 9.36523H0.719738C0.819754 9.12378 0.92943 8.88737 1.04828 8.65648H17.8713C17.9902 8.88737 18.0999 9.12378 18.1999 9.36523ZM16.9758 7.24023C16.7869 6.99279 16.5861 6.75495 16.3743 6.52757H2.5453C2.33348 6.75495 2.13268 6.99279 1.94377 7.24023H16.9758ZM9.45981 3.5155C11.4035 3.5155 13.2103 4.10331 14.7131 5.11132H4.20656C5.70929 4.10331 7.51609 3.5155 9.45981 3.5155Z" fill="black"/>
<path fill-rule="evenodd" clip-rule="evenodd" d="M8.12857 7.23798C8.52339 6.72156 8.96997 6.24704 9.46054 5.82219H3.27972C2.78915 6.24704 2.34257 6.72156 1.94775 7.23798H8.12857ZM7.63569 7.94719H1.45487C1.17133 8.39755 0.92455 8.87349 0.718743 9.37079H6.89956C7.10537 8.87349 7.35215 8.39755 7.63569 7.94719ZM0.0923262 11.6735C0.168975 11.126 0.292245 10.5934 0.457981 10.08H6.6388C6.47306 10.5934 6.34979 11.126 6.27314 11.6735H0.0923262ZM0.0199678 12.3827C0.00672439 12.5881 0 12.7953 0 13.004C0 13.2729 0.0111572 13.5392 0.0330328 13.8024H6.21385C6.19198 13.5392 6.18082 13.2729 6.18082 13.004C6.18082 12.7953 6.18754 12.5881 6.20079 12.3827H0.0199678ZM0.458399 15.9294C0.310379 15.4711 0.1962 14.9975 0.118818 14.5116H6.29964C6.37702 14.9975 6.4912 15.4711 6.63922 15.9294H0.458399ZM0.719278 16.6386C0.951563 17.1996 1.236 17.7335 1.56654 18.2341H7.74736C7.41682 17.7335 7.13238 17.1996 6.9001 16.6386H0.719278ZM3.48788 20.361C2.97165 19.9392 2.50067 19.4638 2.08334 18.9433H8.26416C8.68149 19.4638 9.15247 19.9392 9.6687 20.361H3.48788ZM4.47941 21.0702C5.92594 21.9702 7.63244 22.4898 9.45998 22.4898C10.5422 22.4898 11.5819 22.3076 12.5504 21.9721C11.8834 21.7411 11.2502 21.4373 10.6602 21.0702H4.47941ZM12.5504 4.03596C11.78 4.30283 11.0548 4.66669 10.3892 5.11298H4.20835C5.71076 4.10563 7.51696 3.51825 9.45998 3.51825C10.5422 3.51825 11.5819 3.70046 12.5504 4.03596Z" fill="black"/>
</g>
<defs>
<clipPath id="clip0_2043_34">
<rect width="92.9999" height="26" fill="white"/>
</clipPath>
</defs>
</svg>
