<svg width="24" height="24" viewBox="0 0 24 24" fill="none" xmlns="http://www.w3.org/2000/svg">
<path fill-rule="evenodd" clip-rule="evenodd" d="M7.71033 6.20001C7.86435 3.96515 9.72605 2.20001 12 2.20001C14.274 2.20001 16.1357 3.96515 16.2897 6.20001H16.4437C18.3096 6.20001 19.8995 7.55475 20.1955 9.39703L21.4812 17.397C21.8524 19.7067 20.0686 21.8 17.7294 21.8H6.27067C3.93141 21.8 2.14763 19.7067 2.51881 17.397L3.80453 9.39703C4.10061 7.55475 5.69046 6.20001 7.55638 6.20001H7.71033ZM7.70003 7.80001V8.50001C7.70003 8.94184 8.0582 9.30001 8.50003 9.30001C8.94186 9.30001 9.30003 8.94184 9.30003 8.50001V7.80001H14.7V8.50001C14.7 8.94184 15.0582 9.30001 15.5 9.30001C15.9419 9.30001 16.3 8.94184 16.3 8.50001V7.80001H16.4437C17.5239 7.80001 18.4444 8.58434 18.6158 9.65092L19.9015 17.6509C20.1164 18.9881 19.0837 20.2 17.7294 20.2H6.27067C4.91636 20.2 3.88364 18.9881 4.09854 17.6509L5.38426 9.65092C5.55567 8.58434 6.47611 7.80001 7.55638 7.80001H7.70003ZM14.6836 6.20001H9.31651C9.46574 4.85003 10.6103 3.80001 12 3.80001C13.3898 3.80001 14.5343 4.85003 14.6836 6.20001Z" fill="#404040"/>
</svg>
