<svg width="24" height="24" viewBox="0 0 24 24" fill="none" xmlns="http://www.w3.org/2000/svg">
<path fill-rule="evenodd" clip-rule="evenodd" d="M16.8427 10.4442C18.0357 11.1384 18.0357 12.8616 16.8427 13.5558L10.3777 17.3176C9.1777 18.0159 7.67241 17.1502 7.67241 15.7618L7.67241 8.23817C7.67241 6.84982 9.1777 5.98414 10.3777 6.68238L16.8427 10.4442ZM16.038 12.1729C16.1706 12.0957 16.1706 11.9043 16.038 11.8271L9.573 8.06531C9.43967 7.98772 9.27241 8.08391 9.27241 8.23817L9.27241 15.7618C9.27241 15.9161 9.43967 16.0123 9.573 15.9347L16.038 12.1729Z" fill="#404040"/>
<path fill-rule="evenodd" clip-rule="evenodd" d="M12 20.4C16.6392 20.4 20.4 16.6392 20.4 12C20.4 7.36081 16.6392 3.6 12 3.6C7.36081 3.6 3.6 7.36081 3.6 12C3.6 16.6392 7.36081 20.4 12 20.4ZM12 22C17.5228 22 22 17.5228 22 12C22 6.47715 17.5228 2 12 2C6.47715 2 2 6.47715 2 12C2 17.5228 6.47715 22 12 22Z" fill="#404040"/>
</svg>
